<svg xmlns="http://www.w3.org/2000/svg" data-name="Layer 1" viewBox="0 0 32 40" x="0px" y="0px">
<title>Artboard 33</title><path d="M13.88,12.767A2.12,2.12,0,1,0,16,10.646,2.122,2.122,0,0,0,13.88,12.767Z" fill="none"/>
<path d="M25.431,3.016a2.444,2.444,0,0,0-2.443,2.442V7.415l4.885,4.3V5.458A2.445,2.445,0,0,0,25.431,3.016Z" fill="none"/><path d="M25.177,18.843a5.071,5.071,0,1,0,5.071,5.071A5.077,5.077,0,0,0,25.177,18.843Zm2.448,5.821h-1.7v1.7a.75.75,0,1,1-1.5,0v-1.7h-1.7a.75.75,0,0,1,0-1.5h1.7v-1.7a.75.75,0,1,1,1.5,0v1.7h1.7a.75.75,0,0,1,0,1.5Z" fill="none"/>
<path d="M25.431,1.516a3.946,3.946,0,0,0-3.943,3.942V6.1l-2.7-2.378a4.224,4.224,0,0,0-5.566,0L.507,14.893A.75.75,0,0,0,1.5,16.02l1.124-.989V27a3.489,3.489,0,0,0,3.485,3.485H16a.75.75,0,0,0,0-1.5H6.107A1.987,1.987,0,0,1,4.122,27V13.712L14.207,4.845a2.721,2.721,0,0,1,3.586,0L28.09,13.9l.01.008,2.4,2.113a.75.75,0,0,0,.991-1.127l-2.12-1.864V5.458A3.947,3.947,0,0,0,25.431,1.516ZM27.873,11.71l-4.885-4.3V5.458a2.443,2.443,0,0,1,4.885,0Z"/>
<path d="M12.38,12.767A3.62,3.62,0,1,0,16,9.146,3.624,3.624,0,0,0,12.38,12.767Zm5.74,0A2.12,2.12,0,1,1,16,10.646,2.122,2.122,0,0,1,18.12,12.767Z"/><path d="M25.177,17.343a6.571,6.571,0,1,0,6.571,6.571A6.579,6.579,0,0,0,25.177,17.343Zm0,11.641a5.071,5.071,0,1,1,5.071-5.07A5.076,5.076,0,0,1,25.177,28.984Z"/>
<path d="M27.625,23.164h-1.7v-1.7a.75.75,0,1,0-1.5,0v1.7h-1.7a.75.75,0,0,0,0,1.5h1.7v1.7a.75.75,0,1,0,1.5,0v-1.7h1.7a.75.75,0,0,0,0-1.5Z"/>
<!-- <text x="0" y="47" fill="#c5e013" font-size="5px" font-weight="bold" font-family="'Helvetica Neue', Helvetica, Arial-Unicode, Arial, Sans-serif">Created by myiconfinder</text> -->
<!-- <text x="0" y="52" fill="#eeee14" font-size="5px" font-weight="bold" font-family="'Helvetica Neue', Helvetica, Arial-Unicode, Arial, Sans-serif">from the Noun Project</text> -->
</svg> 